<!-- Generated by IcoMoon.io -->
<svg version="1.1" xmlns="http://www.w3.org/2000/svg" width="1024" height="1024" viewBox="0 0 1024 1024">
<title>twitter</title>
<g id="icomoon-ignore">
</g>
<path fill="#00a4de" d="M890.328-24c87.1 0 157.672 70.572 157.672 157.672v756.653c0 87.1-70.572 157.672-157.672 157.672h-756.653c-87.1 0-157.672-70.572-157.672-157.672v-756.653c0-87.1 70.572-157.672 157.672-157.672h756.653zM724.838 622.328c-34.84 0-62.98 28.14-62.98 62.98s28.14 63.16 62.98 63.16 62.98-28.81 62.98-63.65-28.14-62.98-62.98-62.98zM360.58 746.366c53.6 0 91.836-1.876 115.24-5.36 23.496-3.752 43.596-9.916 58.96-18.404 20.1-10.364 34.84-25.192 45.56-44.22s16.080-40.87 16.080-66.108c0-34.84-9.38-62.666-28.14-83.528-18.76-21.44-44.22-32.784-77.72-35.464 29.48-8.040 51.636-20.1 65.036-36.18 14.070-15.364 20.77-36.804 20.77-63.604 0-21.44-4.602-39.53-13.4-56.28-9.38-16.080-22.022-28.81-39.442-38.86-15.41-8.71-32.83-14.070-54.27-18.090-20.724-3.304-57.62-5.36-110.504-5.36h-130.202v468.376h132.036zM393.456 559.436c31.49 0 52.93 3.932 64.32 11.704 12.060 8.040 17.42 22.11 17.42 41.54 0 18.090-6.030 30.82-18.76 38.19-12.060 8.040-34.17 11.344-64.32 11.344h-44.936v-102.598h46.9zM780.088 590.972v-315.348h-109.88v315.348h109.792zM374.65 381.572c31.712 0 52.93 3.572 63.964 10.72 10.942 7.148 16.394 19.43 16.394 37.072 0 16.972-5.808 28.856-17.42 35.912-11.838 6.88-33.366 10.364-64.856 10.364h-25.46v-94.068h27.47z"></path>
</svg>
