<svg width="40" height="40" xmlns="http://www.w3.org/2000/svg"><g fill="none" fill-rule="evenodd"><circle fill="#00B900" cx="20" cy="20" r="20"/><path d="M30.36 18.883c0 1.85-.718 3.515-2.215 5.157-2.167 2.495-7.013 5.533-8.115 5.997-1.103.465-.94-.295-.895-.556l.147-.885c.035-.264.07-.673-.033-.934-.116-.287-.574-.437-.91-.51-4.964-.655-8.639-4.126-8.639-8.27 0-4.622 4.634-8.382 10.33-8.382s10.33 3.76 10.33 8.383zM17.625 16.5H16.9a.201.201 0 0 0-.201.201v4.5c0 .112.09.202.201.202h.725c.11 0 .2-.09.2-.201V16.7c0-.11-.09-.201-.2-.201zm5.156 0h-.725a.201.201 0 0 0-.201.201v2.674l-2.063-2.785a.178.178 0 0 0-.015-.02l-.002-.002a.365.365 0 0 0-.012-.013l-.004-.003-.01-.009-.006-.004-.01-.007a.295.295 0 0 0-.017-.01l-.006-.003a.16.16 0 0 0-.012-.005l-.006-.002a.084.084 0 0 0-.012-.004l-.007-.002-.012-.002a.065.065 0 0 0-.008-.002l-.01-.001h-.011l-.007-.001H18.9a.201.201 0 0 0-.201.201v4.5c0 .112.09.202.201.202h.725c.111 0 .201-.09.201-.201v-2.673l2.065 2.789c.014.02.032.036.051.05h.002l.013.008.005.004.01.004.01.004.006.003a.533.533 0 0 0 .017.005.19.19 0 0 0 .051.007h.725a.2.2 0 0 0 .2-.201V16.7c0-.11-.09-.201-.2-.201zm-6.986 3.775h-1.97v-3.574a.201.201 0 0 0-.2-.201H12.9a.201.201 0 0 0-.201.201v4.5a.2.2 0 0 0 .056.14l.003.003.003.003a.2.2 0 0 0 .139.056h2.895c.11 0 .2-.09.2-.202v-.724c0-.111-.09-.202-.2-.202zm11-2.648c.11 0 .2-.09.2-.201V16.7a.201.201 0 0 0-.2-.201H23.9a.199.199 0 0 0-.14.057l-.002.002-.003.004a.2.2 0 0 0-.056.138v4.5a.2.2 0 0 0 .062.145.198.198 0 0 0 .139.057h2.895c.11 0 .2-.09.2-.202v-.724a.201.201 0 0 0-.2-.201h-1.969v-.761h1.969c.11 0 .2-.09.2-.201v-.725a.201.201 0 0 0-.2-.201h-1.969v-.76h1.969z" fill="#FFF"/></g></svg>